<svg xmlns="http://www.w3.org/2000/svg" xmlns:xlink="http://www.w3.org/1999/xlink" viewBox="0 0 82 56" fill="#fff" fill-rule="evenodd" stroke="#000" stroke-linecap="round" stroke-linejoin="round"><use xlink:href="#A" x=".5" y=".5"/><symbol id="A" overflow="visible"><g stroke="none" fill-rule="nonzero"><path d="M35.32 42.32h9.32v10.56h-9.32z" fill="#669df6"/><path d="M65.92 34.44a2.24 2.24 0 0 1-1.6-.68L48 16.84 37.04 28.4a2.28 2.28 0 0 1-3.04.2l-8.32-6.72-8.8 11.68a2.24 2.24 0 0 1-1.8.88H0v6.84a3 3 0 0 0 2.96 3h74.08a3 3 0 0 0 2.96-3v-6.84z" fill="#4285f4"/><path d="M14 30l9.52-12.64a2.2 2.2 0 0 1 1.48-.88 2.52 2.52 0 0 1 1.68.48l8.48 6.88 11.2-11.76a2.16 2.16 0 0 1 1.6-.68h0a2.16 2.16 0 0 1 1.6.68L66.88 30H80V2.96A2.96 2.96 0 0 0 77.04 0H2.96A2.96 2.96 0 0 0 0 2.96V30.2z" fill="#669df6"/><path d="M26.68 52.88c0-.665.535-1.2 1.2-1.2h24.28c.665 0 1.2.535 1.2 1.2v.04c0 .665-.535 1.2-1.2 1.2H27.88c-.665 0-1.2-.535-1.2-1.2z" fill="#4285f4"/></g></symbol></svg>